<?xml version="1.0" encoding="utf-8"?>
<!-- Generator: Adobe Illustrator 17.0.0, SVG Export Plug-In . SVG Version: 6.00 Build 0)  -->
<!DOCTYPE svg PUBLIC "-//W3C//DTD SVG 1.1//EN" "http://www.w3.org/Graphics/SVG/1.1/DTD/svg11.dtd">
<svg version="1.1" id="Layer_1" xmlns="http://www.w3.org/2000/svg" xmlns:xlink="http://www.w3.org/1999/xlink" x="0px" y="0px"
	 width="620px" height="620px" viewBox="0 0 620 620" enable-background="new 0 0 620 620" xml:space="preserve">
<path fill="#5681A1" d="M309.995,1C138.795,1,0.002,139.782,0.002,311.003C0.002,482.203,138.795,621,309.995,621
	c171.21,0,310.002-138.797,310.002-309.997C619.998,139.782,481.205,1,309.995,1z"/>
<path fill="#F7B034" d="M507.829,267.004l-345.348,23.274c0,0-81.138,74.798-55.556,107.359
	c24.774,31.532,72.071,75.077,162.163,54.055c0,0,156.66-51.051,201.704-81.081C470.794,370.611,575.398,330.069,507.829,267.004z"
	/>
<path fill="#EAA607" d="M507.829,267.004C491.315,97.332,327.647,115.351,327.647,115.351
	C150.468,136.372,157.49,305.044,165.483,316.556c25.023,36.037,97.437,56.661,134.139,68.07
	c74.072,23.022,134.134-13.014,134.134-13.014C532.856,335.576,507.829,267.004,507.829,267.004z"/>
<path fill="#F9B121" d="M445.767,146.383c0,0-18.019-29.029-48.051-31.031c-89.346-5.959-207.711,59.311-226.73,208.462
	c0,0,16.772,16.766,38.794,27.778c24.831,12.418,64.564,24.774,64.564,24.774S216.536,163.399,445.767,146.383z"/>
<path fill="#FFC364" d="M397.716,115.351c-89.346-5.959-207.711,59.311-226.73,208.462c0,0,16.772,16.766,38.794,27.778
	c0,0-0.276-104.133,59.809-161.165c59.058-56.057,159.818-61.885,159.818-61.885C421.405,122.115,410.681,116.216,397.716,115.351z"
	/>
</svg>
