<?xml version="1.0" encoding="utf-8"?>
<!-- Generator: Adobe Illustrator 17.0.0, SVG Export Plug-In . SVG Version: 6.00 Build 0)  -->
<!DOCTYPE svg PUBLIC "-//W3C//DTD SVG 1.1//EN" "http://www.w3.org/Graphics/SVG/1.1/DTD/svg11.dtd">
<svg version="1.1" id="Layer_1" xmlns="http://www.w3.org/2000/svg" xmlns:xlink="http://www.w3.org/1999/xlink" x="0px" y="0px"
	 width="620px" height="620px" viewBox="0 0 620 620" enable-background="new 0 0 620 620" xml:space="preserve">
<path fill="#5681A1" d="M309.995,1C138.795,1,0.002,139.782,0.002,311.003C0.002,482.203,138.795,621,309.995,621
	c171.21,0,310.002-138.797,310.002-309.997C619.998,139.782,481.205,1,309.995,1z"/>
<g transform="translate(-1 -1)">
	<g>
		<path fill="#E0E0E0" d="M311.085,245.754L185.423,120.092c-5.434-5.434-13.585-5.434-19.019,0l-48.227,47.548
			c-5.434,5.434-5.434,13.585,0,19.019L243.838,313L311.085,245.754z"/>
		<path fill="#E0E0E0" d="M505.351,440.021L378.331,313l-67.246,67.246l127.021,127.021c3.396,3.396,9.51,3.396,12.906,0
			l54.341-54.341C508.748,449.53,508.748,443.417,505.351,440.021"/>
	</g>
	<path fill="#A3AAAF" d="M459.163,431.87c-8.151-8.151-21.057-8.151-28.529,0s-8.151,21.057,0,28.529s21.056,8.151,28.529,0
		C466.634,452.248,466.634,440.021,459.163,431.87"/>
	<path fill="#A0772D" d="M162.328,461.757L397.35,226.735l33.283,33.963L195.611,495.72L162.328,461.757z"/>
	<path fill="#BD9139" d="M162.328,461.757l-33.283-33.963l235.022-235.022l33.963,33.283L162.328,461.757z"/>
	<path fill="#E65252" d="M392.595,164.243l67.246,67.246l41.434-41.434c8.83-8.83,8.83-23.774,0-32.604l-34.641-34.642
		c-8.83-8.83-23.774-8.83-32.604,0L392.595,164.243z"/>
	<path fill="#EDB691" d="M128.365,428.473L128.365,428.473l-14.264,81.511l81.511-14.264L128.365,428.473z"/>
	<path fill="#F4BA48" d="M431.313,260.018l-67.246-67.246l28.529-28.529l67.246,67.246L431.313,260.018z"/>
	<g>
		<path fill="#A3AAAF" d="M137.195,206.357L137.195,206.357l28.529-28.529c2.717-2.717,2.717-7.472,0-10.189s-6.793-2.717-9.51,0
			l-28.529,29.208L137.195,206.357z"/>
		<path fill="#A3AAAF" d="M156.214,225.376L156.214,225.376l19.019-19.019c2.717-2.717,2.717-6.793,0-9.51
			c-2.717-2.717-6.793-2.717-9.51,0l-19.019,19.019L156.214,225.376z"/>
		<path fill="#A3AAAF" d="M194.933,206.357l-28.529,28.529l9.51,9.51l28.529-28.529c2.717-2.717,2.717-6.793,0-9.51
			C201.725,203.64,197.65,203.64,194.933,206.357"/>
		<path fill="#A3AAAF" d="M204.442,234.886l-19.019,19.019l9.51,9.51l19.019-19.019c2.717-2.717,2.717-6.793,0-9.51
			C211.234,232.848,207.159,232.848,204.442,234.886"/>
		<path fill="#A3AAAF" d="M243.159,245.075c-2.717-2.717-6.793-2.717-9.51,0l-28.528,28.529l9.51,9.51l28.529-28.529
			C245.877,251.867,245.877,247.792,243.159,245.075"/>
		<path fill="#A3AAAF" d="M252.669,273.603c-2.717-2.717-6.793-2.717-9.51,0l-19.698,19.019l9.51,9.51l19.019-19.019
			C255.386,280.396,255.386,276.32,252.669,273.603"/>
		<path fill="#A3AAAF" d="M329.425,398.587L329.425,398.587l28.529-28.529c2.717-2.717,2.717-6.793,0-9.51
			c-2.717-2.717-6.793-2.717-9.51,0l-28.529,28.529L329.425,398.587z"/>
		<path fill="#A3AAAF" d="M348.444,417.605L348.444,417.605l19.019-19.019c2.717-2.717,2.717-6.793,0-9.51
			c-2.717-2.717-6.793-2.717-9.51,0l-19.019,19.019L348.444,417.605z"/>
		<path fill="#A3AAAF" d="M387.161,398.587l-28.529,28.529l9.51,9.51l28.529-28.529c2.717-2.717,2.717-6.793,0-9.51
			C393.954,395.87,389.878,395.87,387.161,398.587"/>
	</g>
</g>
</svg>
