<?xml version="1.0" encoding="utf-8"?>
<!-- Generator: Adobe Illustrator 17.0.0, SVG Export Plug-In . SVG Version: 6.00 Build 0)  -->
<!DOCTYPE svg PUBLIC "-//W3C//DTD SVG 1.1//EN" "http://www.w3.org/Graphics/SVG/1.1/DTD/svg11.dtd">
<svg version="1.1" id="Layer_1" xmlns="http://www.w3.org/2000/svg" xmlns:xlink="http://www.w3.org/1999/xlink" x="0px" y="0px"
	 width="620px" height="620px" viewBox="0 0 620 620" enable-background="new 0 0 620 620" xml:space="preserve">
<path fill="#5681A1" d="M309.995,1C138.795,1,0.002,139.782,0.002,311.003C0.002,482.203,138.795,621,309.995,621
	c171.21,0,310.002-138.797,310.002-309.997C619.998,139.782,481.205,1,309.995,1z"/>
<g>
	<path fill="#324A5D" d="M374.041,356.705c8.156,0.73,14.568,4.853,20.164,10.479c1.958,1.969,3.753,4.095,6.495,5.028
		c0.246,1.175,0.194,2.533,0.783,3.499c10.35,16.966,14.03,35.816,16.57,55.195c1.339,10.218,1.122,8.67-8.359,7.92
		c-0.795-0.063-1.563-0.423-2.359-0.539c-8.631-1.264-17.266-2.506-26.06-3.778c-0.008,3.237,1.826,4.779,3.039,6.535
		c8.713,12.619,17.392,25.267,26.413,37.665c2.795,3.842,2.577,6.796,0.639,10.958c-5.799,12.456-12.193,24.58-19.036,36.469
		c-16.052,27.89-34.25,54.185-56.919,77.246c-5.93,6.033-13.237,10.55-18.404,17.349c-46.116,2.025-90.014-7.379-132.126-25.794
		c-30.39-13.289-57.639-31.457-82.329-53.533c-1.162-1.039-2.735-1.861-2.597-3.812c0.271-25.976-1.826-52.022,3.369-77.824
		c5.786-28.734,20.01-51.915,45.271-67.036c17.961-10.752,38.159-16.004,58.83-19.113c4.175-0.628,8.314-1.719,12.602-1.265
		c-2.157,6.329-6.589,11.44-9.074,17.693c-5.729,14.415-7.955,29.511-10.136,44.672c-0.512,3.557,0.199,5.235,4.454,4.545
		c10.867-1.764,21.801-3.118,32.797-4.649c0.507,3.137-1.695,4.736-2.974,6.596c-8.684,12.625-17.46,25.188-26.335,37.68
		c-2.283,3.213-2.876,5.846-1.059,9.85c13.564,29.881,30.399,57.787,49.872,84.138c10.334,13.984,22.247,26.572,34.818,38.541
		c4.437,4.224,5.879,3.925,7.939-1.619c3.299-8.882,6.386-17.842,9.563-26.769c9.012-23.159,17.008-46.667,24.196-70.453
		c12.339-35.046,23.248-70.541,32.771-106.445C371.144,389.981,375.985,373.806,374.041,356.705z"/>
	<path fill="#2B3B4E" d="M317.008,620.729c5.167-6.798,12.473-11.316,18.404-17.349c22.669-23.061,40.867-49.356,56.919-77.246
		c6.843-11.89,13.237-24.013,19.036-36.469c1.938-4.163,2.156-7.116-0.639-10.958c-9.02-12.398-17.7-25.046-26.413-37.665
		c-1.212-1.756-3.047-3.298-3.039-6.535c8.794,1.272,17.428,2.514,26.06,3.778c0.796,0.117,1.563,0.476,2.359,0.539
		c9.481,0.75,9.698,2.299,8.359-7.92c-2.54-19.379-6.22-38.229-16.57-55.195c-0.589-0.966-0.537-2.324-0.783-3.499
		c24.303,2.328,47.741,7.798,69.138,20.005c29.502,16.831,43.608,43.579,48.54,76.189c3.432,22.695,1.797,45.54,2.41,68.319
		c-3.227,6.374-9.442,9.807-14.613,14.05c-40.104,32.903-85.577,54.807-136.549,64.783
		C352.304,618.947,334.809,621.691,317.008,620.729z"/>
	<path fill="#FDCF5B" d="M395.121,235.975c4.421,1.389,6.226,4.761,6.861,9.031c1.974,13.27-5.844,25.822-18.758,29.689
		c-2.087,0.625-2.902,1.793-3.628,3.513c-4.781,11.327-10.327,22.249-17.326,32.389c-0.939,1.36-1.618,2.709-1.306,4.471
		c1.787,10.089,2.989,20.292,5.933,30.155c1.065,12.681-4.537,22.591-13.023,31.292c-12.495,12.813-27.881,21.057-44.15,27.895
		c0.002,0,0.138,0,0.138,0c-12.842-5.061-24.971-11.513-35.669-20.22c-12.313-10.022-22.908-21.3-21.573-39.009
		c1.994-9.252,3.973-18.507,5.993-27.753c0.558-2.556-0.18-4.664-1.636-6.784c-6.874-10.01-12.372-20.763-16.911-32.012
		c-0.852-2.111-1.747-3.619-4.396-4.303c-12.496-3.227-21.098-18.674-17.486-30.962c1.002-3.408,2.622-6.371,6.485-7.281
		c3.713,10.617,5.746,21.811,10.845,32.007c0.427-4.325,0.295-8.564,0.451-12.792c0.468-12.614,2.06-25.03,9.007-35.967
		c7.512-11.827,16.824-18.541,32.51-16.441c21.844,2.924,41.614-3.59,57.164-20.08c2.666-2.827,3.958-2.564,5.645,0.577
		c4.147,7.721,2.807,15.236-0.831,22.6c-1.605,3.249-3.631,6.29-6.249,10.762c26.277-9.028,31.473-29.565,33.259-52.792
		c7.714,5.93,9.755,13.684,11.044,21.695c1.296,8.054,0.559,16.223,0.018,25.566c4.114-3.884,4.46-7.964,5.635-11.592
		c2.022,0.416,2.331,2.053,2.68,3.256c2.527,8.715,3.076,17.531-0.287,26.119c-3.173,8.103-6.2,16.24-7.392,24.876
		c-0.861,6.236-1.399,12.599,2.811,19.434C381.963,258.552,387.248,246.755,395.121,235.975z"/>
	<path fill="#324A5D" d="M395.121,235.975c-7.873,10.78-13.158,22.577-14.139,37.34c-4.21-6.835-3.672-13.198-2.811-19.434
		c1.192-8.636,4.219-16.773,7.392-24.876c3.363-8.588,2.813-17.404,0.287-26.119c-0.349-1.204-0.658-2.84-2.68-3.256
		c-1.175,3.628-1.521,7.708-5.635,11.592c0.541-9.343,1.278-17.512-0.018-25.566c-1.289-8.012-3.331-15.765-11.044-21.695
		c-1.786,23.227-6.981,43.764-33.259,52.792c2.617-4.472,4.643-7.513,6.249-10.762c3.638-7.364,4.979-14.878,0.831-22.6
		c-1.687-3.141-2.979-3.405-5.645-0.577c-15.551,16.49-35.32,23.004-57.164,20.08c-15.685-2.099-24.998,4.614-32.51,16.441
		c-6.947,10.937-8.539,23.352-9.007,35.967c-0.157,4.228-0.025,8.466-0.451,12.792c-5.099-10.196-7.131-21.39-10.845-32.007
		c-3.504-17.815-7.391-35.541-7.327-53.882c0.102-29.467,4.813-40.905,25.874-60.543c-3.45-1.589-6.788,2.275-10.925-0.079
		c10.201-10.339,22.158-17.026,35.761-20.756c16.342-4.481,32.767-3.874,49.169-0.034c1.804,0.422,4.201,2.402,5.446,0.171
		c1.185-2.123-1.003-4.085-2.436-5.754c-1.026-1.195-2.229-2.24-3.694-3.689c4.25-1.509,7.866,0.014,11.392,0.803
		c28.538,6.389,51.997,19.748,64.679,47.691c5.987,13.191,6.813,27.339,7.57,41.459
		C401.164,199.868,401.148,218.211,395.121,235.975z"/>
	<path fill="#2B3B4E" d="M309.893,583.028c-3.177,8.927-6.264,17.887-9.563,26.769c-2.06,5.545-3.502,5.844-7.939,1.619
		c-12.571-11.969-24.484-24.557-34.818-38.541c-19.473-26.351-36.308-54.257-49.872-84.138c-1.818-4.004-1.224-6.637,1.059-9.85
		c8.875-12.492,17.652-25.054,26.335-37.68c1.28-1.861,3.481-3.459,2.974-6.596c-10.996,1.531-21.93,2.885-32.797,4.649
		c-4.255,0.69-4.966-0.988-4.454-4.545c2.181-15.16,4.407-30.256,10.136-44.672c2.485-6.253,6.917-11.363,9.074-17.693
		c5.571-4.445,9.972-10.386,16.827-13.19c2.762-1.13,5.503-2.342,8.562-2.431c0.228,5.84-0.322,11.68,0.754,17.523
		c8.646,46.979,24.286,91.943,39.31,137.087C292.695,535.551,301.212,559.317,309.893,583.028z"/>
	<path fill="#F2F2F2" d="M309.723,404.41c16.272-6.838,31.657-15.082,44.152-27.895c8.486-8.702,14.087-18.611,13.023-31.292
		c4.539,2.483,5.083,7.454,7.143,11.481c1.944,17.102-2.897,33.277-7.181,49.426c-9.524,35.904-20.432,71.399-32.772,106.446
		c-0.438-1.544-1.037-3.063-1.287-4.637c-3.269-20.52-6.784-41.007-9.581-61.592c-1.195-8.791-5.836-18.082,1.792-26.524
		c1.889-2.09-0.441-3.63-1.992-4.875C318.609,411.408,314.158,407.919,309.723,404.41z"/>
	<path fill="#F2F2F2" d="M285.48,511.341c-15.024-45.144-30.664-90.108-39.31-137.087c-1.075-5.843-0.526-11.683-0.754-17.523
		c2.084-4.047,2.684-9.019,7.205-11.548c-1.334,17.708,9.26,28.986,21.573,39.007c10.698,8.707,22.826,15.159,35.666,20.22
		c-4.129,3.247-8.128,6.678-12.423,9.684c-3.529,2.471-4.383,4.93-1.48,8.39c2.782,3.317,3.149,6.965,2.361,11.305
		c-2.125,11.704-3.404,23.563-5.543,35.264C290.202,483.126,289.094,497.451,285.48,511.341z"/>
	<path fill="#53BFE9" d="M285.48,511.341c3.614-13.89,4.722-28.214,7.296-42.288c2.14-11.701,3.419-23.56,5.543-35.264
		c0.788-4.34,0.421-7.988-2.361-11.305c-2.903-3.46-2.049-5.919,1.48-8.39c4.295-3.007,8.294-6.437,12.423-9.684
		c0.002,0-0.134,0.001-0.136,0c4.433,3.509,8.884,6.998,13.294,10.538c1.552,1.245,3.881,2.784,1.992,4.875
		c-7.627,8.442-2.986,17.733-1.792,26.524c2.797,20.585,6.312,41.072,9.581,61.592c0.251,1.575,0.85,3.094,1.287,4.637
		c-7.188,23.785-15.184,47.293-24.196,70.452C301.212,559.317,292.695,535.551,285.48,511.341z"/>
</g>
</svg>
